<?xml version="1.0" encoding="UTF-8" standalone="no"?>
<!-- Created with Inkscape (http://www.inkscape.org/) -->

<svg
   xmlns:dc="http://purl.org/dc/elements/1.1/"
   xmlns:cc="http://creativecommons.org/ns#"
   xmlns:rdf="http://www.w3.org/1999/02/22-rdf-syntax-ns#"
   xmlns:svg="http://www.w3.org/2000/svg"
   xmlns="http://www.w3.org/2000/svg"
   xmlns:sodipodi="http://sodipodi.sourceforge.net/DTD/sodipodi-0.dtd"
   xmlns:inkscape="http://www.inkscape.org/namespaces/inkscape"
   width="400"
   height="540"
   id="svg2"
   version="1.1"
   inkscape:version="0.48.4 r9939"
   sodipodi:docname="Neues Dokument 1">
  <defs
     id="defs4" />
  <sodipodi:namedview
     id="base"
     pagecolor="#ffffff"
     bordercolor="#666666"
     borderopacity="1.0"
     inkscape:pageopacity="0.0"
     inkscape:pageshadow="2"
     inkscape:zoom="1.4142136"
     inkscape:cx="126.63872"
     inkscape:cy="301.48919"
     inkscape:document-units="px"
     inkscape:current-layer="layer2"
     showgrid="true"
     showguides="true"
     inkscape:guide-bbox="true"
     inkscape:window-width="1920"
     inkscape:window-height="998"
     inkscape:window-x="0"
     inkscape:window-y="25"
     inkscape:window-maximized="1">
    <inkscape:grid
       type="xygrid"
       id="grid2987"
       empspacing="5"
       visible="true"
       enabled="true"
       snapvisiblegridlinesonly="true" />
  </sodipodi:namedview>
  <metadata
     id="metadata7">
    <rdf:RDF>
      <cc:Work
         rdf:about="">
        <dc:format>image/svg+xml</dc:format>
        <dc:type
           rdf:resource="http://purl.org/dc/dcmitype/StillImage" />
        <dc:title></dc:title>
      </cc:Work>
    </rdf:RDF>
  </metadata>
  <g
     inkscape:label="Ebene 1"
     inkscape:groupmode="layer"
     id="layer1"
     transform="translate(0,-512.36218)">
    <path
       style="fill:#cccccc"
       d="m 116.4557,582.36218 151.89873,0 c 101.28273,0 111.64557,10 111.64557,110 l 0,15 20,13.2716 0,108.64198 -20,13.08642 0,15 0,110 c 0,9.61199 -4.60217,15 -15,15 l -349.990957,0 C 5.0632911,982.36218 0,977.42391 0,968.07647 L 0,691.29288 c 0,-99.05416 10.126582,-108.9307 116.4557,-108.9307 z"
       id="rect2985"
       inkscape:connector-curvature="0"
       sodipodi:nodetypes="cccccccccccccc" />
    <path
       style="fill:#666666"
       d="m 379.97626,712.41948 15,10 0,50 -15,0 z"
       id="rect2994"
       inkscape:connector-curvature="0"
       sodipodi:nodetypes="ccccc" />
    <path
       style="fill:#666666"
       d="m 379.89201,778.03937 15,0 0,50 -15,10 z"
       id="rect2994-3"
       inkscape:connector-curvature="0"
       sodipodi:nodetypes="ccccc" />
    <path
       style="fill:#241c1c"
       d="m 155,512.36218 50,0 c 50,0 40,15 50,70 l -150,0 c 10,-55 0,-70 50,-70 z"
       id="rect3016"
       inkscape:connector-curvature="0"
       sodipodi:nodetypes="ccccc" />
    <path
       style="fill:#241c1c"
       d="m 205,1052.3622 -50,0 c -50,0 -40,-15 -50,-70.0001 l 150,0 c -10,55.0001 0,70.0001 -50,70.0001 z"
       id="rect3016-7"
       inkscape:connector-curvature="0"
       sodipodi:nodetypes="ccccc" />
  </g>
  <g
     inkscape:groupmode="layer"
     id="layer2"
     inkscape:label="Display"
     style="display:inline"
     transform="translate(0,-512.36218)">
    <rect
       style="fill:#000000"
       id="rect3041"
       width="335"
       height="310"
       x="20"
       y="652.36218" />
  </g>
  <g
     inkscape:groupmode="layer"
     id="layer3"
     inkscape:label="Text"
     transform="translate(0,-512.36218)">
    <text
       xml:space="preserve"
       style="font-size:40px;font-style:normal;font-weight:normal;line-height:125%;letter-spacing:0px;word-spacing:0px;fill:#803300;fill-opacity:1;stroke:none;font-family:Sans"
       x="50"
       y="632.36218"
       id="text3043"
       sodipodi:linespacing="125%"><tspan
         sodipodi:role="line"
         id="tspan3045"
         x="50"
         y="632.36218">NERD WATCH</tspan></text>
  </g>
</svg>
